<?xml version="1.0" encoding="UTF-8" standalone="no"?>
<!-- Created with Inkscape (http://www.inkscape.org/) -->

<svg
   width="1920"
   height="1080"
   viewBox="0 0 1920 1080"
   version="1.1"
   id="svg1"
   inkscape:version="1.4 (86a8ad7, 2024-10-11)"
   sodipodi:docname="HiRes1080p.svg"
   inkscape:export-filename="..\..\graphics\LMBHRES1.png"
   inkscape:export-xdpi="96"
   inkscape:export-ydpi="96"
   xmlns:inkscape="http://www.inkscape.org/namespaces/inkscape"
   xmlns:sodipodi="http://sodipodi.sourceforge.net/DTD/sodipodi-0.dtd"
   xmlns="http://www.w3.org/2000/svg"
   xmlns:svg="http://www.w3.org/2000/svg"
   xmlns:rdf="http://www.w3.org/1999/02/22-rdf-syntax-ns#"
   xmlns:cc="http://creativecommons.org/ns#">
  <sodipodi:namedview
     id="namedview1"
     pagecolor="#505050"
     bordercolor="#ffffff"
     borderopacity="1"
     inkscape:showpageshadow="0"
     inkscape:pageopacity="0"
     inkscape:pagecheckerboard="1"
     inkscape:deskcolor="#505050"
     inkscape:document-units="mm"
     showgrid="true"
     inkscape:zoom="0.76536274"
     inkscape:cx="999.52606"
     inkscape:cy="489.31047"
     inkscape:window-width="2560"
     inkscape:window-height="1417"
     inkscape:window-x="-8"
     inkscape:window-y="-8"
     inkscape:window-maximized="1"
     inkscape:current-layer="layer14">
    <inkscape:grid
       id="grid1"
       units="mm"
       originx="0"
       originy="0"
       spacingx="1"
       spacingy="1"
       empcolor="#0099e5"
       empopacity="0.30196078"
       color="#0099e5"
       opacity="0.14901961"
       empspacing="5"
       enabled="true"
       visible="true" />
    <inkscape:grid
       id="grid2"
       units="mm"
       originx="0"
       originy="0"
       spacingx="1"
       spacingy="1"
       empcolor="#0099e5"
       empopacity="0.30196078"
       color="#0099e5"
       opacity="0.14901961"
       empspacing="100"
       enabled="true"
       visible="true" />
  </sodipodi:namedview>
  <defs
     id="defs1" />
  <g
     inkscape:label="aaa"
     inkscape:groupmode="layer"
     id="layer1"
     sodipodi:insensitive="true"
     style="display:none">
    <rect
       style="opacity:0.998844;fill:#ffffff;stroke-width:20;stroke-linecap:round;stroke-linejoin:round"
       id="rect2"
       width="1920"
       height="1080"
       x="0"
       y="0" />
  </g>
  <g
     inkscape:groupmode="layer"
     id="layer13"
     inkscape:label="LahMbohMore">
    <g
       id="g62"
       transform="matrix(1.8749998,0,0,1.8749998,327.50007,339.99996)"
       style="display:inline">
      <path
         id="path58"
         style="opacity:0.998844;fill:#ffffff;stroke:none;stroke-width:20;stroke-linecap:round;stroke-linejoin:round"
         d="m 64,-320 c 0,0 -32,0 -32,32 v 64 c 0,0 0,32 32,32 l 96,-128 z m 128,0 -96,128 h 96 c 0,0 32,0 32,-32 v -64 c 0,0 0,-32 -32,-32 z" />
      <g
         id="g61">
        <path
           id="path59"
           style="opacity:0.998844;fill:#ffffff;stroke:none;stroke-width:20;stroke-linecap:round;stroke-linejoin:round"
           d="m 272,-320 v 16 c 0,0 16,0 16,16 v 64 c 0,0 0,16 -16,16 v 16 h 16 32 c 0,0 64,0 64,-64 0,-64 -64,-64 -64,-64 h -32 z m 40,24 h 8 c 0,0 40,0 40,40 0,40 -40,40 -40,40 h -8 z" />
        <path
           id="path60"
           style="opacity:0.998844;fill:#ffffff;stroke:none;stroke-width:20;stroke-linecap:round;stroke-linejoin:round"
           d="m 400,-320 v 16 c 0,0 16,0 16,16 v 64 c 0,0 0,16 -16,16 v 16 h 16 24 v -96 l 72,96 h 24 16 v -16 c -16,0 -16,-16 -16,-16 v -64 c 0,-16 16,-16 16,-16 v -16 h -16 -24 v 96 l -72,-96 h -24 z" />
        <path
           id="path61"
           style="opacity:0.998844;fill:#ffffff;stroke:none;stroke-width:20;stroke-linecap:round;stroke-linejoin:round"
           d="m 568,-320 v 16 c 0,0 16,0 16,16 v 64 c 0,0 0,16 -16,16 v 16 h 16 16 32 c 0,0 32,0 32,-32 0,-32 -32,-32 -32,-32 0,0 32,0 32,-32 0,-32 -32,-32 -32,-32 h -32 -16 z m 32,16 h 32 c 0,0 16,0 16,16 0,16 -16,16 -16,16 h -24 -8 z m 0,64 h 32 c 0,0 16,0 16,16 0,16 -16,16 -16,16 h -24 -8 z" />
      </g>
    </g>
    <rect
       style="opacity:0.998844;fill:#000000;stroke-width:20;stroke-linecap:round;stroke-linejoin:round"
       id="rect3"
       width="1920"
       height="1080"
       x="0"
       y="0" />
    <g
       id="g7"
       transform="matrix(0.7812503,0,0,0.7812503,674.99999,1180.0001)"
       style="display:inline"
       sodipodi:insensitive="true">
      <path
         id="path3"
         style="opacity:0.998844;fill:#ffffff;stroke:none;stroke-width:20;stroke-linecap:round;stroke-linejoin:round"
         d="m 64,-320 c 0,0 -32,0 -32,32 v 64 c 0,0 0,32 32,32 l 96,-128 z m 128,0 -96,128 h 96 c 0,0 32,0 32,-32 v -64 c 0,0 0,-32 -32,-32 z" />
      <g
         id="g6">
        <path
           id="path4"
           style="opacity:0.998844;fill:#ffffff;stroke:none;stroke-width:20;stroke-linecap:round;stroke-linejoin:round"
           d="m 272,-320 v 16 c 0,0 16,0 16,16 v 64 c 0,0 0,16 -16,16 v 16 h 16 32 c 0,0 64,0 64,-64 0,-64 -64,-64 -64,-64 h -32 z m 40,24 h 8 c 0,0 40,0 40,40 0,40 -40,40 -40,40 h -8 z" />
        <path
           id="path5"
           style="opacity:0.998844;fill:#ffffff;stroke:none;stroke-width:20;stroke-linecap:round;stroke-linejoin:round"
           d="m 400,-320 v 16 c 0,0 16,0 16,16 v 64 c 0,0 0,16 -16,16 v 16 h 16 24 v -96 l 72,96 h 24 16 v -16 c -16,0 -16,-16 -16,-16 v -64 c 0,-16 16,-16 16,-16 v -16 h -16 -24 v 96 l -72,-96 h -24 z" />
        <path
           id="path6"
           style="opacity:0.998844;fill:#ffffff;stroke:none;stroke-width:20;stroke-linecap:round;stroke-linejoin:round"
           d="m 568,-320 v 16 c 0,0 16,0 16,16 v 64 c 0,0 0,16 -16,16 v 16 h 16 16 32 c 0,0 32,0 32,-32 0,-32 -32,-32 -32,-32 0,0 32,0 32,-32 0,-32 -32,-32 -32,-32 h -32 -16 z m 32,16 h 32 c 0,0 16,0 16,16 0,16 -16,16 -16,16 h -24 -8 z m 0,64 h 32 c 0,0 16,0 16,16 0,16 -16,16 -16,16 h -24 -8 z" />
      </g>
    </g>
    <g
       id="g1"
       transform="matrix(4.895564,0,0,4.895564,192.76066,-25.222085)"
       sodipodi:insensitive="true"
       style="display:inline">
      <text
         xml:space="preserve"
         style="font-weight:900;font-size:29.3333px;line-height:1;font-family:Ubuntu;-inkscape-font-specification:'Ubuntu Heavy';text-align:center;writing-mode:lr-tb;direction:ltr;text-anchor:middle;display:inline;opacity:0.998844;fill:#ffffff;stroke:none;stroke-width:20;stroke-linecap:round;stroke-linejoin:round"
         x="160"
         y="32"
         id="text3"><tspan
           sodipodi:role="line"
           id="tspan3"
           x="160"
           y="32">Lah Mboh?</tspan></text>
      <text
         xml:space="preserve"
         style="font-weight:900;font-size:10.6667px;line-height:1;font-family:Ubuntu;-inkscape-font-specification:'Ubuntu Heavy';text-align:center;writing-mode:lr-tb;direction:ltr;text-anchor:middle;display:inline;opacity:0.998844;fill:#ffffff;stroke-width:20;stroke-linecap:round;stroke-linejoin:round"
         x="160"
         y="44"
         id="text1"><tspan
           sodipodi:role="line"
           id="tspan1"
           x="160"
           y="44">Test suite &amp; Megawads</tspan></text>
    </g>
    <g
       inkscape:groupmode="layer"
       id="layer14"
       inkscape:label="awa"
       sodipodi:insensitive="true"
       style="display:none">
      <text
         xml:space="preserve"
         style="font-weight:900;font-size:473.786px;line-height:1;font-family:Ubuntu;-inkscape-font-specification:'Ubuntu Heavy';text-align:center;writing-mode:lr-tb;direction:ltr;text-anchor:middle;opacity:0.998844;fill:#ffffff;stroke-width:98.7054;stroke-linecap:round;stroke-linejoin:round"
         x="987.10669"
         y="674.78833"
         id="text7"><tspan
           sodipodi:role="line"
           id="tspan7"
           x="987.10669"
           y="674.78833"
           style="stroke-width:98.7054">aaaa</tspan></text>
    </g>
  </g>
  <metadata
     id="metadata2">
    <rdf:RDF>
      <cc:Work
         rdf:about="">
        <cc:license
           rdf:resource="http://creativecommons.org/licenses/by-sa/4.0/" />
      </cc:Work>
      <cc:License
         rdf:about="http://creativecommons.org/licenses/by-sa/4.0/">
        <cc:permits
           rdf:resource="http://creativecommons.org/ns#Reproduction" />
        <cc:permits
           rdf:resource="http://creativecommons.org/ns#Distribution" />
        <cc:requires
           rdf:resource="http://creativecommons.org/ns#Notice" />
        <cc:requires
           rdf:resource="http://creativecommons.org/ns#Attribution" />
        <cc:permits
           rdf:resource="http://creativecommons.org/ns#DerivativeWorks" />
        <cc:requires
           rdf:resource="http://creativecommons.org/ns#ShareAlike" />
      </cc:License>
    </rdf:RDF>
  </metadata>
</svg>
