<?xml version="1.0" encoding="UTF-8" standalone="no"?>
<!-- Created with Inkscape (http://www.inkscape.org/) -->

<svg
   width="1920"
   height="1080"
   viewBox="0 0 1920 1080"
   version="1.1"
   id="svg5"
   inkscape:version="1.4.3 (0d15f75, 2025-12-25)"
   sodipodi:docname="Perkedel_Desktop_Wallpaper.svg"
   inkscape:export-filename="..\..\graphics\Perkedel_Desktop_Wallpaper_PostMortem_Decay.png"
   inkscape:export-xdpi="96"
   inkscape:export-ydpi="96"
   xmlns:inkscape="http://www.inkscape.org/namespaces/inkscape"
   xmlns:sodipodi="http://sodipodi.sourceforge.net/DTD/sodipodi-0.dtd"
   xmlns="http://www.w3.org/2000/svg"
   xmlns:svg="http://www.w3.org/2000/svg"
   xmlns:rdf="http://www.w3.org/1999/02/22-rdf-syntax-ns#"
   xmlns:cc="http://creativecommons.org/ns#">
  <sodipodi:namedview
     id="namedview7"
     pagecolor="#0e0e0e"
     bordercolor="#ffffff"
     borderopacity="1"
     inkscape:showpageshadow="0"
     inkscape:pageopacity="0"
     inkscape:pagecheckerboard="1"
     inkscape:deskcolor="#000000"
     inkscape:document-units="px"
     showgrid="true"
     inkscape:zoom="0.66875"
     inkscape:cx="656.4486"
     inkscape:cy="571.96262"
     inkscape:window-width="2560"
     inkscape:window-height="1417"
     inkscape:window-x="-8"
     inkscape:window-y="-8"
     inkscape:window-maximized="1"
     inkscape:current-layer="layer119">
    <inkscape:grid
       type="xygrid"
       id="grid748"
       enabled="true"
       visible="true"
       originx="0"
       originy="0"
       spacingy="1"
       spacingx="1"
       units="px" />
    <inkscape:grid
       id="grid1"
       units="px"
       originx="0"
       originy="0"
       spacingx="1"
       spacingy="1"
       empcolor="#0099e5"
       empopacity="0.30196078"
       color="#0099e5"
       opacity="0.14901961"
       empspacing="50"
       enabled="true"
       visible="true" />
  </sodipodi:namedview>
  <defs
     id="defs2" />
  <g
     inkscape:label="bekgron in case"
     inkscape:groupmode="layer"
     id="layer1"
     style="display:inline"
     sodipodi:insensitive="true">
    <rect
       style="fill:#000000"
       id="rect750"
       width="1920"
       height="1080"
       x="0"
       y="0" />
  </g>
  <g
     inkscape:groupmode="layer"
     id="layer3"
     inkscape:label="normal wave"
     style="display:none"
     sodipodi:insensitive="true">
    <g
       id="g2061">
      <path
         inkscape:connector-curvature="0"
         style="fill:none;fill-opacity:1;fill-rule:nonzero;stroke:#ff0000;stroke-width:5;stroke-linecap:round;stroke-linejoin:bevel;stroke-dasharray:none;stroke-opacity:1"
         d="M 249.45283,772.63679 A 105.27358,105.27358 0 0 0 144.17925,877.91038 105.27358,105.27358 0 0 0 249.45283,983.18396 H 354.72642 A 105.27358,105.27358 0 0 0 460,877.91038 105.27358,105.27358 0 0 0 354.72642,772.63679 Z"
         id="path1906" />
      <path
         inkscape:connector-curvature="0"
         style="fill:none;fill-opacity:1;fill-rule:nonzero;stroke:#00ff00;stroke-width:5;stroke-linecap:round;stroke-linejoin:bevel;stroke-dasharray:none;stroke-opacity:1"
         d="M 213.15676,700.04464 A 177.86573,177.86573 0 0 0 35.291025,877.91038 177.86573,177.86573 0 0 0 213.15676,1055.7761 H 391.02249 A 177.86573,177.86573 0 0 0 568.88822,877.91038 177.86573,177.86573 0 0 0 391.02249,700.04464 Z"
         id="path1908" />
      <path
         inkscape:connector-curvature="0"
         style="fill:none;fill-opacity:1;fill-rule:nonzero;stroke:#0000ff;stroke-width:5;stroke-linecap:round;stroke-linejoin:bevel;stroke-dasharray:none;stroke-opacity:1"
         d="M 105.89211,485.51533 A 392.39504,392.39504 0 0 0 -286.50295,877.91039 392.39504,392.39504 0 0 0 105.89211,1270.3054 H 498.28715 A 392.39504,392.39504 0 0 0 890.68219,877.91039 392.39504,392.39504 0 0 0 498.28715,485.51533 Z"
         id="path1936" />
      <path
         inkscape:connector-curvature="0"
         style="fill:none;fill-opacity:1;fill-rule:nonzero;stroke:#00ffff;stroke-width:5;stroke-linecap:round;stroke-linejoin:bevel;stroke-dasharray:none;stroke-opacity:1"
         d="M -55.820724,162.08965 A 715.82072,715.82072 0 0 0 -771.64148,877.91041 715.82072,715.82072 0 0 0 -55.820724,1593.7311 H 660 A 715.82072,715.82072 0 0 0 1375.8207,877.91041 715.82072,715.82072 0 0 0 660,162.08965 Z"
         id="path1957" />
      <path
         inkscape:connector-curvature="0"
         style="fill:none;fill-opacity:1;fill-rule:nonzero;stroke:#ff00ff;stroke-width:5;stroke-linecap:round;stroke-linejoin:bevel;stroke-dasharray:none;stroke-opacity:1"
         d="M -136.41256,0.90597195 A 877.0044,877.0044 0 0 0 -1013.417,877.91042 877.0044,877.0044 0 0 0 -136.41256,1754.9147 h 877.0044 A 877.0044,877.0044 0 0 0 1617.5962,877.91042 877.0044,877.0044 0 0 0 740.59184,0.90597195 Z"
         id="path1959" />
      <path
         inkscape:connector-curvature="0"
         style="fill:none;fill-opacity:1;fill-rule:nonzero;stroke:#ffffff;stroke-width:5;stroke-linecap:round;stroke-linejoin:bevel;stroke-dasharray:none;stroke-opacity:1"
         d="M 24.179268,322.08964 A 555.82073,555.82073 0 0 0 -531.64149,877.9104 555.82073,555.82073 0 0 0 24.179268,1433.7311 H 580 A 555.82073,555.82073 0 0 0 1135.8207,877.9104 555.82073,555.82073 0 0 0 580,322.08964 Z"
         id="path1982" />
      <path
         inkscape:connector-curvature="0"
         style="fill:none;fill-opacity:1;fill-rule:nonzero;stroke:#ffff00;stroke-width:5;stroke-linecap:round;stroke-linejoin:bevel;stroke-dasharray:none;stroke-opacity:1"
         d="M -235.39234,-197.0536 A 1074.964,1074.964 0 0 0 -1310.3564,877.91044 1074.964,1074.964 0 0 0 -235.39234,1952.8743 H 839.57164 A 1074.964,1074.964 0 0 0 1914.5356,877.91044 1074.964,1074.964 0 0 0 839.57164,-197.0536 Z"
         id="path2006" />
    </g>
  </g>
  <g
     inkscape:groupmode="layer"
     id="layer4"
     inkscape:label="dried wave"
     sodipodi:insensitive="true"
     style="display:none">
    <g
       id="g2135"
       style="display:inline">
      <path
         inkscape:connector-curvature="0"
         style="fill:none;fill-opacity:1;fill-rule:nonzero;stroke:#000000;stroke-width:5;stroke-linecap:round;stroke-linejoin:bevel;stroke-dasharray:none;stroke-opacity:1"
         d="M 249.45283,772.63679 A 105.27358,105.27358 0 0 0 144.17925,877.91038 105.27358,105.27358 0 0 0 249.45283,983.18396 H 354.72642 A 105.27358,105.27358 0 0 0 460,877.91038 105.27358,105.27358 0 0 0 354.72642,772.63679 Z"
         id="path2121" />
      <path
         inkscape:connector-curvature="0"
         style="fill:none;fill-opacity:1;fill-rule:nonzero;stroke:#1a1a1a;stroke-width:5;stroke-linecap:round;stroke-linejoin:bevel;stroke-dasharray:none;stroke-opacity:1"
         d="M 213.15676,700.04464 A 177.86573,177.86573 0 0 0 35.291025,877.91038 177.86573,177.86573 0 0 0 213.15676,1055.7761 H 391.02249 A 177.86573,177.86573 0 0 0 568.88822,877.91038 177.86573,177.86573 0 0 0 391.02249,700.04464 Z"
         id="path2123" />
      <path
         inkscape:connector-curvature="0"
         style="fill:none;fill-opacity:1;fill-rule:nonzero;stroke:#333333;stroke-width:5;stroke-linecap:round;stroke-linejoin:bevel;stroke-dasharray:none;stroke-opacity:1"
         d="M 105.89211,485.51533 A 392.39504,392.39504 0 0 0 -286.50295,877.91039 392.39504,392.39504 0 0 0 105.89211,1270.3054 H 498.28715 A 392.39504,392.39504 0 0 0 890.68219,877.91039 392.39504,392.39504 0 0 0 498.28715,485.51533 Z"
         id="path2125" />
      <path
         inkscape:connector-curvature="0"
         style="fill:none;fill-opacity:1;fill-rule:nonzero;stroke:#666666;stroke-width:5;stroke-linecap:round;stroke-linejoin:bevel;stroke-dasharray:none;stroke-opacity:1"
         d="M -55.820724,162.08965 A 715.82072,715.82072 0 0 0 -771.64148,877.91041 715.82072,715.82072 0 0 0 -55.820724,1593.7311 H 660 A 715.82072,715.82072 0 0 0 1375.8207,877.91041 715.82072,715.82072 0 0 0 660,162.08965 Z"
         id="path2127" />
      <path
         inkscape:connector-curvature="0"
         style="fill:none;fill-opacity:1;fill-rule:nonzero;stroke:#808080;stroke-width:5;stroke-linecap:round;stroke-linejoin:bevel;stroke-dasharray:none;stroke-opacity:1"
         d="M -136.41256,0.90597195 A 877.0044,877.0044 0 0 0 -1013.417,877.91042 877.0044,877.0044 0 0 0 -136.41256,1754.9147 h 877.0044 A 877.0044,877.0044 0 0 0 1617.5962,877.91042 877.0044,877.0044 0 0 0 740.59184,0.90597195 Z"
         id="path2129" />
      <path
         inkscape:connector-curvature="0"
         style="fill:none;fill-opacity:1;fill-rule:nonzero;stroke:#4d4d4d;stroke-width:5;stroke-linecap:round;stroke-linejoin:bevel;stroke-dasharray:none;stroke-opacity:1"
         d="M 24.179268,322.08964 A 555.82073,555.82073 0 0 0 -531.64149,877.9104 555.82073,555.82073 0 0 0 24.179268,1433.7311 H 580 A 555.82073,555.82073 0 0 0 1135.8207,877.9104 555.82073,555.82073 0 0 0 580,322.08964 Z"
         id="path2131" />
      <path
         inkscape:connector-curvature="0"
         style="fill:none;fill-opacity:1;fill-rule:nonzero;stroke:#999999;stroke-width:5;stroke-linecap:round;stroke-linejoin:bevel;stroke-dasharray:none;stroke-opacity:1"
         d="M -235.39234,-197.0536 A 1074.964,1074.964 0 0 0 -1310.3564,877.91044 1074.964,1074.964 0 0 0 -235.39234,1952.8743 H 839.57164 A 1074.964,1074.964 0 0 0 1914.5356,877.91044 1074.964,1074.964 0 0 0 839.57164,-197.0536 Z"
         id="path2133" />
    </g>
  </g>
  <g
     inkscape:groupmode="layer"
     id="layer2"
     inkscape:label="main"
     sodipodi:insensitive="true"
     style="display:none">
    <g
       id="g1934">
      <g
         id="g1925">
        <path
           inkscape:connector-curvature="0"
           style="fill:#ffc800;fill-opacity:1;fill-rule:nonzero;stroke:none;stroke-width:0.522406;stroke-opacity:1"
           d="m 285.37263,844.47639 a 33.43399,33.43399 0 0 0 -33.43399,33.43399 33.43399,33.43399 0 0 0 33.43399,33.43399 h 33.43399 a 33.43399,33.43399 0 0 0 33.43399,-33.43399 33.43399,33.43399 0 0 0 -33.43399,-33.43399 z"
           id="path1451" />
        <path
           inkscape:connector-curvature="0"
           style="fill:#fffe00;fill-opacity:1;fill-rule:nonzero;stroke:none;stroke-width:0.545637;stroke-opacity:1"
           d="M 302.08962,852.83488 A 2.0896244,2.0896244 0 0 0 300,854.92451 v 20.89624 h -20.89624 a 2.0896244,2.0896244 0 0 0 -2.08963,2.08963 A 2.0896244,2.0896244 0 0 0 279.10376,880 H 300 v 20.89624 a 2.0896244,2.0896244 0 0 0 2.08962,2.08963 2.0896244,2.0896244 0 0 0 2.08963,-2.08963 V 880 h 20.89624 a 2.0896244,2.0896244 0 0 0 2.08963,-2.08962 2.0896244,2.0896244 0 0 0 -2.08963,-2.08963 h -20.89624 v -20.89624 a 2.0896244,2.0896244 0 0 0 -2.08963,-2.08963 z"
           id="rect1461" />
      </g>
      <flowRoot
         transform="matrix(0.52240609,0,0,0.52240609,161.95106,714.24303)"
         style="font-style:normal;font-weight:normal;font-size:40px;line-height:0;font-family:sans-serif;letter-spacing:0px;word-spacing:0px;fill:#ffffff;fill-opacity:1;stroke:#000000;stroke-width:1.43566;stroke-linecap:round;stroke-linejoin:bevel;stroke-dasharray:none"
         id="flowRoot1482"
         xml:space="preserve"><flowRegion
           style="line-height:0;fill:#ffffff;stroke:#000000;stroke-width:1.43566;stroke-linecap:round;stroke-linejoin:bevel;stroke-dasharray:none"
           id="flowRegion1484"><rect
             style="line-height:0;stroke:#000000;fill:#ffffff;stroke-width:1.43566473;stroke-dasharray:none;stroke-linejoin:bevel;stroke-linecap:round"
             y="272"
             x="384"
             height="128"
             width="1024"
             id="rect1486" /></flowRegion><flowPara
           style="font-style:normal;font-variant:normal;font-weight:normal;font-stretch:normal;font-size:96px;line-height:1;font-family:Ubuntu;-inkscape-font-specification:Ubuntu;fill:#ffffff;stroke:#000000;stroke-width:1.43566;stroke-linecap:round;stroke-linejoin:bevel;stroke-dasharray:none"
           id="flowPara1488">Perkedel Technologies</flowPara></flowRoot>
    </g>
  </g>
  <g
     inkscape:groupmode="layer"
     id="g2238"
     inkscape:label="main dried"
     sodipodi:insensitive="true"
     style="display:none">
    <g
       id="g2236">
      <g
         id="g2226">
        <path
           inkscape:connector-curvature="0"
           style="fill:#cccccc;fill-opacity:1;fill-rule:nonzero;stroke:none;stroke-width:0.522406;stroke-opacity:1"
           d="m 285.37263,844.47639 a 33.43399,33.43399 0 0 0 -33.43399,33.43399 33.43399,33.43399 0 0 0 33.43399,33.43399 h 33.43399 a 33.43399,33.43399 0 0 0 33.43399,-33.43399 33.43399,33.43399 0 0 0 -33.43399,-33.43399 z"
           id="path2222" />
        <path
           inkscape:connector-curvature="0"
           style="fill:#ffffff;fill-opacity:1;fill-rule:nonzero;stroke:none;stroke-width:0.545637;stroke-opacity:1"
           d="M 302.08962,852.83488 A 2.0896244,2.0896244 0 0 0 300,854.92451 v 20.89624 h -20.89624 a 2.0896244,2.0896244 0 0 0 -2.08963,2.08963 A 2.0896244,2.0896244 0 0 0 279.10376,880 H 300 v 20.89624 a 2.0896244,2.0896244 0 0 0 2.08962,2.08963 2.0896244,2.0896244 0 0 0 2.08963,-2.08963 V 880 h 20.89624 a 2.0896244,2.0896244 0 0 0 2.08963,-2.08962 2.0896244,2.0896244 0 0 0 -2.08963,-2.08963 h -20.89624 v -20.89624 a 2.0896244,2.0896244 0 0 0 -2.08963,-2.08963 z"
           id="path2224" />
      </g>
      <flowRoot
         transform="matrix(0.52240609,0,0,0.52240609,161.95106,714.24303)"
         style="font-style:normal;font-weight:normal;font-size:40px;line-height:0;font-family:sans-serif;letter-spacing:0px;word-spacing:0px;fill:#ffffff;fill-opacity:1;stroke:#000000;stroke-width:1.43566;stroke-linecap:round;stroke-linejoin:bevel;stroke-dasharray:none"
         id="flowRoot2234"
         xml:space="preserve"><flowRegion
           style="line-height:0;fill:#ffffff;stroke:#000000;stroke-width:1.43566;stroke-linecap:round;stroke-linejoin:bevel;stroke-dasharray:none"
           id="flowRegion2230"><rect
             style="line-height:0;stroke:#000000;fill:#ffffff;stroke-width:1.43566473;stroke-dasharray:none;stroke-linejoin:bevel;stroke-linecap:round"
             y="272"
             x="384"
             height="128"
             width="1024"
             id="rect2228" /></flowRegion><flowPara
           style="font-style:normal;font-variant:normal;font-weight:normal;font-stretch:normal;font-size:96px;line-height:1;font-family:Ubuntu;-inkscape-font-specification:Ubuntu;fill:#ffffff;stroke:#000000;stroke-width:1.43566;stroke-linecap:round;stroke-linejoin:bevel;stroke-dasharray:none"
           id="flowPara2232">Perkedel Technologies</flowPara></flowRoot>
    </g>
  </g>
  <g
     inkscape:groupmode="layer"
     id="layer115"
     inkscape:label="PostMortemSet">
    <g
       inkscape:groupmode="layer"
       id="layer116"
       inkscape:label="PostMortemBlue"
       sodipodi:insensitive="true"
       style="display:none">
      <g
         id="g533"
         style="display:inline;fill:#000080"
         transform="matrix(12.432657,0,0,12.432657,305.26316,1013.1579)">
        <g
           id="g523"
           style="fill:#000080">
          <path
             id="path480"
             style="display:inline;fill:#000080;stroke:none;stroke-width:0.0264583;stroke-linecap:round;stroke-linejoin:round"
             d="m -4.233333,-25.4 c -2.3380054,-1e-6 -4.2333333,1.895329 -4.2333334,4.233334 -5e-7,2.338006 1.8953276,4.233333 4.2333334,4.233333 H -4.231266 3.1171465e-7 C 2.3380034,-16.933332 4.2333346,-18.82866 4.2333336,-21.166666 4.233334,-23.504671 2.338006,-25.399999 3.1171465e-7,-25.4 Z m 2.1166666,1.058334 c 0.264583,0 0.2645834,0.264583 0.2645834,0.264583 v 2.645833 h 2.64583331 c 0,0 0.26458329,10e-7 0.26458329,0.264584 0,0.264584 -0.26458329,0.264583 -0.26458329,0.264583 H -1.852083 v 2.645833 c 0,0 -4e-7,0.264584 -0.2645834,0.264584 -0.264584,0 -0.2645833,-0.264584 -0.2645833,-0.264584 v -2.645833 H -5.027083 c 0,0 -0.2645834,1e-6 -0.2645834,-0.264583 0,-0.264583 0.2645834,-0.264584 0.2645834,-0.264584 h 2.6458333 v -2.645833 c 0,0 -7e-7,-0.264583 0.2645833,-0.264583 z" />
          <g
             id="g522"
             style="fill:#000080">
            <path
               id="path481"
               style="fill:#000080;stroke:none;stroke-width:0.0264583;stroke-linecap:round;stroke-linejoin:round"
               d="m 5.0270831,-25.4 c -0.2645833,0 -0.2645833,0.264584 -0.2645833,0.264584 v 7.9375 c 0,0 0,0.264583 0.2645833,0.264583 0.2645834,0 0.2645833,-0.264583 0.2645833,-0.264583 v -3.96875 h 1.5874997 c 0.001,0 2.116667,-5.13e-4 2.116667,-2.116667 0,-2.116666 -2.116667,-2.116667 -2.116667,-2.116667 H 5.2916664 Z m 0.2645833,0.529167 h 1.5874997 c 0,0 1.5875,0 1.5875,1.5875 0,1.5875 -1.5875,1.5875 -1.5875,1.5875 H 5.2916664 Z" />
            <path
               id="path482"
               style="fill:#000080;stroke:none;stroke-width:0.0264583;stroke-linecap:round;stroke-linejoin:round"
               d="m 13.751615,-25.4 c 0,0 -4.2333339,10e-7 -4.2333339,4.233334 0,4.233334 4.2333339,4.233333 4.2333339,4.233333 h 1.852083 c 0,0 0.264583,0 0.264583,-0.264583 0,-0.264584 -0.264583,-0.264584 -0.264583,-0.264584 h -1.852083 c 0,0 -3.525399,10e-7 -3.697449,-3.439583 h 5.549532 c 0.264583,0 0.264583,-0.264583 0.264583,-0.264583 0,-0.264583 -0.264583,-0.264584 -0.264583,-0.264584 h -5.549532 c 0.17205,-3.439584 3.697449,-3.439583 3.697449,-3.439583 h 1.852083 c 0,0 0.264583,0 0.264583,-0.264583 0,-0.264583 -0.264583,-0.264584 -0.264583,-0.264584 z" />
            <path
               id="path503"
               style="fill:#000080;stroke:none;stroke-width:0.0264583;stroke-linecap:round;stroke-linejoin:round"
               d="m 21.431248,-25.399999 c -0.264584,0 -0.264583,0.264583 -0.264583,0.264583 v 7.9375 c 0,0 -10e-7,0.264583 0.264583,0.264583 0.264583,0 0.264584,-0.264583 0.264584,-0.264583 v -3.704167 l 4.305163,3.885551 c 0,0 0.187049,0.18709 0.374138,0 0.187089,-0.187088 0,-0.374137 0,-0.374137 l -4.150135,-3.775997 4.150135,-3.775997 c 0,0 0.18709,-0.187049 0,-0.374137 -0.187091,-0.187087 -0.374138,0 -0.374138,0 l -4.305163,3.885551 v -3.704167 c 0,0 -1e-6,-0.264583 -0.264584,-0.264583 z" />
            <path
               id="path504"
               style="fill:#000080;stroke:none;stroke-width:0.0264583;stroke-linecap:round;stroke-linejoin:round"
               d="m 31.220833,-25.4 c 0,0 -4.233334,10e-7 -4.233334,4.233334 0,4.233334 4.233334,4.233333 4.233334,4.233333 h 1.852083 c 0,0 0.264583,0 0.264583,-0.264583 0,-0.264584 -0.264583,-0.264584 -0.264583,-0.264584 h -1.852083 c 0,0 -3.525399,10e-7 -3.697449,-3.439583 h 5.549532 c 0.264583,0 0.264583,-0.264583 0.264583,-0.264583 0,-0.264583 -0.264583,-0.264584 -0.264583,-0.264584 h -5.549532 c 0.17205,-3.439584 3.697449,-3.439583 3.697449,-3.439583 h 1.852083 c 0,0 0.264583,0 0.264583,-0.264583 0,-0.264583 -0.264583,-0.264584 -0.264583,-0.264584 z" />
            <path
               id="path505"
               style="fill:#000080;stroke:none;stroke-width:0.0264583;stroke-linecap:round;stroke-linejoin:round"
               d="m 34.131247,-25.399969 c -2.8e-5,0 -0.0073,-1.19e-4 -0.01912,10e-4 -0.08103,0.0042 -0.135766,0.03369 -0.172082,0.07235 -0.04158,0.03909 -0.07328,0.09905 -0.07338,0.190686 v 5.17e-4 7.9375 c 0,0.264584 0.264584,0.264583 0.264584,0.264583 h 0.264583 1.5875 c 0,0 4.233333,1e-6 4.233333,-4.233333 0,-4.233333 -4.233333,-4.233334 -4.233333,-4.233334 z m 0.264583,0.529167 h 1.5875 c 0,0 3.704167,0 3.704167,3.704167 0,3.704167 -3.704167,3.704166 -3.704167,3.704166 h -1.5875 z" />
            <path
               id="path506"
               style="fill:#000080;stroke:none;stroke-width:0.0264583;stroke-linecap:round;stroke-linejoin:round"
               d="m 44.972447,-25.4 c 0,0 -4.233334,10e-7 -4.233334,4.233334 0,4.233334 4.233334,4.233333 4.233334,4.233333 h 1.852083 c 0,0 0.264583,0 0.264583,-0.264583 0,-0.264584 -0.264583,-0.264584 -0.264583,-0.264584 h -1.852083 c 0,0 -3.525399,10e-7 -3.697449,-3.439583 h 5.549532 c 0.264583,0 0.264583,-0.264583 0.264583,-0.264583 0,-0.264583 -0.264583,-0.264584 -0.264583,-0.264584 h -5.549532 c 0.17205,-3.439584 3.697449,-3.439583 3.697449,-3.439583 h 1.852083 c 0,0 0.264583,0 0.264583,-0.264583 0,-0.264583 -0.264583,-0.264584 -0.264583,-0.264584 z" />
            <path
               style="fill:#000080;stroke:none;stroke-width:0.0264583;stroke-linecap:round;stroke-linejoin:round"
               d="m 47.624998,-25.135416 v 7.143751 c 0,0 0,1.058333 1.058333,1.058333 1.058333,0 2.910417,0 2.910417,0 0,0 0.264583,0 0.264583,-0.264583 0,-0.264584 -0.264583,-0.264584 -0.264583,-0.264584 h -2.910417 c 0,0 -0.529167,0 -0.529167,-0.529166 l 2e-6,-7.14375 c 0,0 0,-0.264584 -0.264583,-0.264584 -0.264584,0 -0.264585,0.264583 -0.264585,0.264583 z"
               id="path507" />
            <path
               id="path522"
               style="fill:#000080;stroke:none;stroke-width:0.0264583;stroke-linecap:round;stroke-linejoin:round"
               d="m 16.668749,-25.4 c -0.264583,0 -0.264583,0.264584 -0.264583,0.264584 v 3.96875 0.264583 3.704167 c 0,0 0,0.264583 0.264583,0.264583 0.264583,0 0.264583,-0.264583 0.264583,-0.264583 v -3.159497 l 3.246831,3.340881 c 0,0 0.187048,0.18709 0.374137,0 0.187089,-0.187088 0,-0.374137 0,-0.374137 l -3.620968,-3.775997 h 1.5875 c 0.001,0 2.116667,-5.13e-4 2.116667,-2.116667 0,-2.116666 -2.116667,-2.116667 -2.116667,-2.116667 h -1.5875 z m 0.264583,0.529167 h 1.5875 c 0,0 1.5875,0 1.5875,1.5875 0,1.5875 -1.5875,1.5875 -1.5875,1.5875 h -1.5875 z" />
          </g>
        </g>
        <g
           id="g532"
           transform="matrix(0.75000113,0,0,0.75000113,-2.1167443,-4.4978864)"
           style="fill:#000080">
          <path
             id="path523"
             style="fill:#000080;stroke:none;stroke-width:0.0264583;stroke-linecap:round;stroke-linejoin:round"
             d="m 68.791667,-27.516667 a 1.0583333,1.0583333 0 0 0 -1.058334,1.058334 1.0583333,1.0583333 0 0 0 1.058334,1.058333 1.0583333,1.0583333 0 0 0 0.0015,0 h 2.113566 0.0015 a 1.0583333,1.0583333 0 0 0 1.058334,-1.058333 1.0583333,1.0583333 0 0 0 -1.058334,-1.058334 z m 0.08992,0.174667 h 0.001 1.935799 a 0.88364679,0.88364679 0 0 1 0.883667,0.883667 0.88364679,0.88364679 0 0 1 -0.883667,0.883667 h -1.936832 a 0.88364679,0.88364679 0 0 1 -0.883667,-0.883667 0.88364679,0.88364679 0 0 1 0.883667,-0.883667 z" />
          <path
             style="fill:#000080;stroke:none;stroke-width:0.015875;stroke-linecap:round;stroke-linejoin:round"
             d="m 69.691247,-27.093333 c 0,0 0,-0.15875 0.15875,-0.15875 0.15875,0 0.15875,0.15875 0.15875,0.15875 l 10e-7,1.27 c 0,0 0,0.158751 -0.15875,0.158751 -0.15875,0 -0.15875,-0.158751 -0.15875,-0.158751 z"
             id="path530"
             sodipodi:nodetypes="csccscc" />
        </g>
      </g>
      <g
         inkscape:groupmode="layer"
         id="layer117"
         inkscape:label="WithCapsules"
         sodipodi:insensitive="true">
        <path
           id="path1"
           style="display:inline;fill:#000080;fill-opacity:0.5;stroke:none;stroke-width:0.0999999;stroke-linecap:round;stroke-linejoin:round"
           d="m 272,859 c -8.83656,-10e-6 -16,7.16344 -16,16 0,8.83656 7.16344,16 16,16 h 0.008 15.99219 C 296.83656,891.00001 304,883.83656 304,875 c 0,-8.83655 -7.16344,-15.99999 -16,-16 z"
           sodipodi:nodetypes="ssscssss" />
        <path
           id="path2"
           style="display:inline;fill:#000080;fill-opacity:0.5;stroke:none;stroke-width:0.0999999;stroke-linecap:round;stroke-linejoin:round"
           d="m 285.65667,958.02926 c -6.24838,-6.2484 -16.37902,-6.24839 -22.62741,0 -6.24838,6.24839 -6.24838,16.37902 0,22.62741 l 0.006,0.006 11.30819,11.30819 c 6.24825,6.24826 16.3789,6.24825 22.62728,-1.4e-4 6.24839,-6.24838 6.24839,-16.37902 0,-22.62741 z"
           sodipodi:nodetypes="ssscssss" />
        <g
           id="g5">
          <path
             id="path425"
             style="display:inline;fill:#000080;fill-opacity:0.5;stroke:none;stroke-width:0.0999999;stroke-linecap:round;stroke-linejoin:round"
             d="m 272,609 c -8.83656,-10e-6 -16,7.16344 -16,16 0,8.83656 7.16344,16 16,16 h 0.008 15.99219 C 296.83656,641.00001 304,633.83656 304,625 c 0,-8.83655 -7.16344,-15.99999 -16,-16 z"
             sodipodi:nodetypes="ssscssss" />
          <path
             id="path3"
             style="display:inline;fill:#000080;fill-opacity:0.5;stroke:none;stroke-width:0.0999999;stroke-linecap:round;stroke-linejoin:round"
             d="m 263.02944,519.34315 c -6.2484,6.24838 -6.24839,16.37902 0,22.62741 6.24839,6.24839 16.37902,6.24839 22.62741,0 l 0.006,-0.006 11.30819,-11.30819 c 6.24826,-6.24825 6.24825,-16.37889 -1.4e-4,-22.62728 -6.24838,-6.24839 -16.37902,-6.24839 -22.62741,0 z"
             sodipodi:nodetypes="ssscssss" />
          <path
             id="path4"
             style="display:inline;fill:#000080;fill-opacity:0.5;stroke:none;stroke-width:0.0999999;stroke-linecap:round;stroke-linejoin:round"
             d="m 264,433 c -10e-6,8.83656 7.16344,16 16,16 8.83656,0 16,-7.16344 16,-16 v -0.008 -15.99219 C 296.00001,408.16344 288.83656,401 280,401 c -8.83655,0 -15.99999,7.16344 -16,16 z"
             sodipodi:nodetypes="ssscssss" />
          <path
             id="path5"
             style="display:inline;fill:#000080;fill-opacity:0.5;stroke:none;stroke-width:0.0999999;stroke-linecap:round;stroke-linejoin:round"
             d="m 274.34315,341.97056 c 6.24838,6.2484 16.37902,6.24839 22.62741,0 6.24839,-6.24839 6.24839,-16.37902 0,-22.62741 l -0.006,-0.006 -11.30819,-11.30819 c -6.24825,-6.24826 -16.37889,-6.24825 -22.62728,1.4e-4 -6.24839,6.24838 -6.24839,16.37902 0,22.62741 z"
             sodipodi:nodetypes="ssscssss" />
        </g>
        <g
           id="g9"
           transform="translate(0,-401)">
          <path
             id="path6"
             style="display:inline;fill:#000080;fill-opacity:0.5;stroke:none;stroke-width:0.0999999;stroke-linecap:round;stroke-linejoin:round"
             d="m 272,609 c -8.83656,-10e-6 -16,7.16344 -16,16 0,8.83656 7.16344,16 16,16 h 0.008 15.99219 C 296.83656,641.00001 304,633.83656 304,625 c 0,-8.83655 -7.16344,-15.99999 -16,-16 z"
             sodipodi:nodetypes="ssscssss" />
          <path
             id="path7"
             style="display:inline;fill:#000080;fill-opacity:0.5;stroke:none;stroke-width:0.0999999;stroke-linecap:round;stroke-linejoin:round"
             d="m 263.02944,519.34315 c -6.2484,6.24838 -6.24839,16.37902 0,22.62741 6.24839,6.24839 16.37902,6.24839 22.62741,0 l 0.006,-0.006 11.30819,-11.30819 c 6.24826,-6.24825 6.24825,-16.37889 -1.4e-4,-22.62728 -6.24838,-6.24839 -16.37902,-6.24839 -22.62741,0 z"
             sodipodi:nodetypes="ssscssss" />
          <path
             id="path8"
             style="display:inline;fill:#000080;fill-opacity:0.5;stroke:none;stroke-width:0.0999999;stroke-linecap:round;stroke-linejoin:round"
             d="m 264,433 c -10e-6,8.83656 7.16344,16 16,16 8.83656,0 16,-7.16344 16,-16 v -0.008 -15.99219 C 296.00001,408.16344 288.83656,401 280,401 c -8.83655,0 -15.99999,7.16344 -16,16 z"
             sodipodi:nodetypes="ssscssss" />
          <path
             id="path9"
             style="display:inline;fill:#000080;fill-opacity:0.5;stroke:none;stroke-width:0.0999999;stroke-linecap:round;stroke-linejoin:round"
             d="m 274.34315,341.97056 c 6.24838,6.2484 16.37902,6.24839 22.62741,0 6.24839,-6.24839 6.24839,-16.37902 0,-22.62741 l -0.006,-0.006 -11.30819,-11.30819 c -6.24825,-6.24826 -16.37889,-6.24825 -22.62728,1.4e-4 -6.24839,6.24838 -6.24839,16.37902 0,22.62741 z"
             sodipodi:nodetypes="ssscssss" />
        </g>
        <path
           id="path16"
           style="display:inline;fill:#000080;fill-opacity:0.5;stroke:none;stroke-width:0.0999999;stroke-linecap:round;stroke-linejoin:round"
           d="m 264,1088 c -10e-6,8.8366 7.16344,16 16,16 8.83656,0 16,-7.1634 16,-16 v -0.01 -15.9922 c 10e-6,-8.8364 -7.16344,-15.9998 -16,-15.9998 -8.83655,0 -15.99999,7.1634 -16,16 z"
           sodipodi:nodetypes="ssscssss" />
      </g>
      <g
         inkscape:groupmode="layer"
         id="layer118"
         inkscape:label="AndWaves"
         sodipodi:insensitive="true">
        <path
           style="fill:#000080;fill-opacity:0.5;stroke-width:0.1;stroke-linecap:round;stroke-linejoin:round"
           d="m 360,600 c 0,0 150,0 150,150 0,150 -150,150 -150,150 0,0 -10,0 -10,-10 0,-10 10,-10 10,-10 0,0 130,10 130,-130 0,-140 -130,-130 -130,-130 0,0 -10,0 -10,-10 0,-10 10,-10 10,-10 z"
           id="path10" />
        <path
           style="fill:#000080;fill-opacity:0.5;stroke-width:0.1;stroke-linecap:round;stroke-linejoin:round"
           d="m 190,600 c 0,0 -150,0 -150,150 0,150 150,150 150,150 0,0 10,0 10,-10 0,-10 -10,-10 -10,-10 0,0 -130,10 -130,-130 0,-140 130,-130 130,-130 0,0 10,0 10,-10 0,-10 -10,-10 -10,-10 z"
           id="path11" />
        <path
           style="fill:#000080;fill-opacity:0.5;stroke-width:0.1;stroke-linecap:round;stroke-linejoin:round"
           d="m -900,-775.39062 c 0,0 750,0 750,699.999995 0,699.999995 -750,649.999995 -750,649.999995 0,0 -25,0 -25,-25 0,-25 25,-25 25,-25 0,0 700,50 700,-599.999995 0,-649.999995 -700,-649.999995 -700,-649.999995 0,0 -25,0 -25,-25 0,-25 25,-25 25,-25 z"
           id="path12"
           sodipodi:nodetypes="czcsczcsc" />
        <path
           style="fill:#000080;fill-opacity:0.5;stroke-width:0.44375;stroke-linecap:round;stroke-linejoin:round"
           d="m 444.375,84.375 c 0,0 665.625,0 665.625,665.625 0,665.625 -665.625,665.625 -665.625,665.625 0,0 -44.375,0 -44.375,-44.375 0,-44.375 44.375,-44.375 44.375,-44.375 0,0 576.875,44.375 576.875,-576.875 0,-621.25 -576.875,-576.875 -576.875,-576.875 0,0 -44.375,0 -44.375,-44.375 0,-44.375 44.375,-44.375 44.375,-44.375 z"
           id="path13" />
        <path
           style="fill:#000080;fill-opacity:0.5;stroke-width:0.60625;stroke-linecap:round;stroke-linejoin:round"
           d="m 1160.625,-159.375 c 0,0 909.375,0 909.375,909.375 0,909.375 -909.375,909.375 -909.375,909.375 0,0 -60.625,0 -60.625,-60.625 0,-60.625 60.625,-60.625 60.625,-60.625 0,0 788.125,60.625 788.125,-788.125 0,-848.749998 -788.125,-788.124998 -788.125,-788.124998 0,0 -60.625,0 -60.625,-60.625 0,-60.625002 60.625,-60.625002 60.625,-60.625002 z"
           id="path14" />
        <path
           style="fill:#000080;fill-opacity:0.5;stroke-width:0.44375;stroke-linecap:round;stroke-linejoin:round"
           d="m 55.625,84.375 c 0,0 -665.625,0 -665.625,665.625 0,665.625 665.625,665.625 665.625,665.625 0,0 44.375,0 44.375,-44.375 0,-44.375 -44.375,-44.375 -44.375,-44.375 0,0 -576.875,44.375 -576.875,-576.875 0,-621.25 576.875,-576.875 576.875,-576.875 0,0 44.375,0 44.375,-44.375 C 100,84.375 55.625,84.375 55.625,84.375 Z"
           id="path15" />
      </g>
    </g>
    <g
       inkscape:groupmode="layer"
       id="layer119"
       inkscape:label="PostMortemDecay"
       sodipodi:insensitive="true">
      <g
         id="g28"
         style="display:inline;fill:#000055"
         transform="matrix(12.432657,0,0,12.432657,305.26316,1013.1579)">
        <g
           id="g26"
           style="fill:#000055">
          <path
             id="path17"
             style="display:inline;fill:#000055;stroke:none;stroke-width:0.0264583;stroke-linecap:round;stroke-linejoin:round"
             d="m -4.233333,-25.4 c -2.3380054,-1e-6 -4.2333333,1.895329 -4.2333334,4.233334 -5e-7,2.338006 1.8953276,4.233333 4.2333334,4.233333 H -4.231266 3.1171465e-7 C 2.3380034,-16.933332 4.2333346,-18.82866 4.2333336,-21.166666 4.233334,-23.504671 2.338006,-25.399999 3.1171465e-7,-25.4 Z m 2.1166666,1.058334 c 0.264583,0 0.2645834,0.264583 0.2645834,0.264583 v 2.645833 h 2.64583331 c 0,0 0.26458329,10e-7 0.26458329,0.264584 0,0.264584 -0.26458329,0.264583 -0.26458329,0.264583 H -1.852083 v 2.645833 c 0,0 -4e-7,0.264584 -0.2645834,0.264584 -0.264584,0 -0.2645833,-0.264584 -0.2645833,-0.264584 v -2.645833 H -5.027083 c 0,0 -0.2645834,1e-6 -0.2645834,-0.264583 0,-0.264583 0.2645834,-0.264584 0.2645834,-0.264584 h 2.6458333 v -2.645833 c 0,0 -7e-7,-0.264583 0.2645833,-0.264583 z" />
          <g
             id="g25"
             style="fill:#000055">
            <path
               id="path18"
               style="fill:#000055;stroke:none;stroke-width:0.0264583;stroke-linecap:round;stroke-linejoin:round"
               d="m 5.0270831,-25.4 c -0.2645833,0 -0.2645833,0.264584 -0.2645833,0.264584 v 7.9375 c 0,0 0,0.264583 0.2645833,0.264583 0.2645834,0 0.2645833,-0.264583 0.2645833,-0.264583 v -3.96875 h 1.5874997 c 0.001,0 2.116667,-5.13e-4 2.116667,-2.116667 0,-2.116666 -2.116667,-2.116667 -2.116667,-2.116667 H 5.2916664 Z m 0.2645833,0.529167 h 1.5874997 c 0,0 1.5875,0 1.5875,1.5875 0,1.5875 -1.5875,1.5875 -1.5875,1.5875 H 5.2916664 Z" />
            <path
               id="path19"
               style="fill:#000055;stroke:none;stroke-width:0.0264583;stroke-linecap:round;stroke-linejoin:round"
               d="m 13.751615,-25.4 c 0,0 -4.2333339,10e-7 -4.2333339,4.233334 0,4.233334 4.2333339,4.233333 4.2333339,4.233333 h 1.852083 c 0,0 0.264583,0 0.264583,-0.264583 0,-0.264584 -0.264583,-0.264584 -0.264583,-0.264584 h -1.852083 c 0,0 -3.525399,10e-7 -3.697449,-3.439583 h 5.549532 c 0.264583,0 0.264583,-0.264583 0.264583,-0.264583 0,-0.264583 -0.264583,-0.264584 -0.264583,-0.264584 h -5.549532 c 0.17205,-3.439584 3.697449,-3.439583 3.697449,-3.439583 h 1.852083 c 0,0 0.264583,0 0.264583,-0.264583 0,-0.264583 -0.264583,-0.264584 -0.264583,-0.264584 z" />
            <path
               id="path20"
               style="fill:#000055;stroke:none;stroke-width:0.0264583;stroke-linecap:round;stroke-linejoin:round"
               d="m 21.431248,-25.399999 c -0.264584,0 -0.264583,0.264583 -0.264583,0.264583 v 7.9375 c 0,0 -10e-7,0.264583 0.264583,0.264583 0.264583,0 0.264584,-0.264583 0.264584,-0.264583 v -3.704167 l 4.305163,3.885551 c 0,0 0.187049,0.18709 0.374138,0 0.187089,-0.187088 0,-0.374137 0,-0.374137 l -4.150135,-3.775997 4.150135,-3.775997 c 0,0 0.18709,-0.187049 0,-0.374137 -0.187091,-0.187087 -0.374138,0 -0.374138,0 l -4.305163,3.885551 v -3.704167 c 0,0 -1e-6,-0.264583 -0.264584,-0.264583 z" />
            <path
               id="path21"
               style="fill:#000055;stroke:none;stroke-width:0.0264583;stroke-linecap:round;stroke-linejoin:round"
               d="m 31.220833,-25.4 c 0,0 -4.233334,10e-7 -4.233334,4.233334 0,4.233334 4.233334,4.233333 4.233334,4.233333 h 1.852083 c 0,0 0.264583,0 0.264583,-0.264583 0,-0.264584 -0.264583,-0.264584 -0.264583,-0.264584 h -1.852083 c 0,0 -3.525399,10e-7 -3.697449,-3.439583 h 5.549532 c 0.264583,0 0.264583,-0.264583 0.264583,-0.264583 0,-0.264583 -0.264583,-0.264584 -0.264583,-0.264584 h -5.549532 c 0.17205,-3.439584 3.697449,-3.439583 3.697449,-3.439583 h 1.852083 c 0,0 0.264583,0 0.264583,-0.264583 0,-0.264583 -0.264583,-0.264584 -0.264583,-0.264584 z" />
            <path
               id="path22"
               style="fill:#000055;stroke:none;stroke-width:0.0264583;stroke-linecap:round;stroke-linejoin:round"
               d="m 34.131247,-25.399969 c -2.8e-5,0 -0.0073,-1.19e-4 -0.01912,10e-4 -0.08103,0.0042 -0.135766,0.03369 -0.172082,0.07235 -0.04158,0.03909 -0.07328,0.09905 -0.07338,0.190686 v 5.17e-4 7.9375 c 0,0.264584 0.264584,0.264583 0.264584,0.264583 h 0.264583 1.5875 c 0,0 4.233333,1e-6 4.233333,-4.233333 0,-4.233333 -4.233333,-4.233334 -4.233333,-4.233334 z m 0.264583,0.529167 h 1.5875 c 0,0 3.704167,0 3.704167,3.704167 0,3.704167 -3.704167,3.704166 -3.704167,3.704166 h -1.5875 z" />
            <path
               id="path23"
               style="fill:#000055;stroke:none;stroke-width:0.0264583;stroke-linecap:round;stroke-linejoin:round"
               d="m 44.972447,-25.4 c 0,0 -4.233334,10e-7 -4.233334,4.233334 0,4.233334 4.233334,4.233333 4.233334,4.233333 h 1.852083 c 0,0 0.264583,0 0.264583,-0.264583 0,-0.264584 -0.264583,-0.264584 -0.264583,-0.264584 h -1.852083 c 0,0 -3.525399,10e-7 -3.697449,-3.439583 h 5.549532 c 0.264583,0 0.264583,-0.264583 0.264583,-0.264583 0,-0.264583 -0.264583,-0.264584 -0.264583,-0.264584 h -5.549532 c 0.17205,-3.439584 3.697449,-3.439583 3.697449,-3.439583 h 1.852083 c 0,0 0.264583,0 0.264583,-0.264583 0,-0.264583 -0.264583,-0.264584 -0.264583,-0.264584 z" />
            <path
               style="fill:#000055;stroke:none;stroke-width:0.0264583;stroke-linecap:round;stroke-linejoin:round"
               d="m 47.624998,-25.135416 v 7.143751 c 0,0 0,1.058333 1.058333,1.058333 1.058333,0 2.910417,0 2.910417,0 0,0 0.264583,0 0.264583,-0.264583 0,-0.264584 -0.264583,-0.264584 -0.264583,-0.264584 h -2.910417 c 0,0 -0.529167,0 -0.529167,-0.529166 l 2e-6,-7.14375 c 0,0 0,-0.264584 -0.264583,-0.264584 -0.264584,0 -0.264585,0.264583 -0.264585,0.264583 z"
               id="path24" />
            <path
               id="path25"
               style="fill:#000055;stroke:none;stroke-width:0.0264583;stroke-linecap:round;stroke-linejoin:round"
               d="m 16.668749,-25.4 c -0.264583,0 -0.264583,0.264584 -0.264583,0.264584 v 3.96875 0.264583 3.704167 c 0,0 0,0.264583 0.264583,0.264583 0.264583,0 0.264583,-0.264583 0.264583,-0.264583 v -3.159497 l 3.246831,3.340881 c 0,0 0.187048,0.18709 0.374137,0 0.187089,-0.187088 0,-0.374137 0,-0.374137 l -3.620968,-3.775997 h 1.5875 c 0.001,0 2.116667,-5.13e-4 2.116667,-2.116667 0,-2.116666 -2.116667,-2.116667 -2.116667,-2.116667 h -1.5875 z m 0.264583,0.529167 h 1.5875 c 0,0 1.5875,0 1.5875,1.5875 0,1.5875 -1.5875,1.5875 -1.5875,1.5875 h -1.5875 z" />
          </g>
        </g>
        <g
           id="g27"
           transform="matrix(0.75000113,0,0,0.75000113,-2.1167443,-4.4978864)"
           style="fill:#000055">
          <path
             id="path26"
             style="fill:#000055;stroke:none;stroke-width:0.0264583;stroke-linecap:round;stroke-linejoin:round"
             d="m 68.791667,-27.516667 a 1.0583333,1.0583333 0 0 0 -1.058334,1.058334 1.0583333,1.0583333 0 0 0 1.058334,1.058333 1.0583333,1.0583333 0 0 0 0.0015,0 h 2.113566 0.0015 a 1.0583333,1.0583333 0 0 0 1.058334,-1.058333 1.0583333,1.0583333 0 0 0 -1.058334,-1.058334 z m 0.08992,0.174667 h 0.001 1.935799 a 0.88364679,0.88364679 0 0 1 0.883667,0.883667 0.88364679,0.88364679 0 0 1 -0.883667,0.883667 h -1.936832 a 0.88364679,0.88364679 0 0 1 -0.883667,-0.883667 0.88364679,0.88364679 0 0 1 0.883667,-0.883667 z" />
          <path
             style="fill:#000055;stroke:none;stroke-width:0.015875;stroke-linecap:round;stroke-linejoin:round"
             d="m 69.691247,-27.093333 c 0,0 0,-0.15875 0.15875,-0.15875 0.15875,0 0.15875,0.15875 0.15875,0.15875 l 10e-7,1.27 c 0,0 0,0.158751 -0.15875,0.158751 -0.15875,0 -0.15875,-0.158751 -0.15875,-0.158751 z"
             id="path27"
             sodipodi:nodetypes="csccscc" />
        </g>
      </g>
    </g>
  </g>
  <metadata
     id="metadata746">
    <rdf:RDF>
      <cc:Work
         rdf:about="">
        <cc:license
           rdf:resource="http://creativecommons.org/licenses/by-sa/4.0/" />
      </cc:Work>
      <cc:License
         rdf:about="http://creativecommons.org/licenses/by-sa/4.0/">
        <cc:permits
           rdf:resource="http://creativecommons.org/ns#Reproduction" />
        <cc:permits
           rdf:resource="http://creativecommons.org/ns#Distribution" />
        <cc:requires
           rdf:resource="http://creativecommons.org/ns#Notice" />
        <cc:requires
           rdf:resource="http://creativecommons.org/ns#Attribution" />
        <cc:permits
           rdf:resource="http://creativecommons.org/ns#DerivativeWorks" />
        <cc:requires
           rdf:resource="http://creativecommons.org/ns#ShareAlike" />
      </cc:License>
    </rdf:RDF>
  </metadata>
</svg>
