<?xml version="1.0" encoding="UTF-8" standalone="no"?>
<!-- Created with Inkscape (http://www.inkscape.org/) -->

<svg
   width="320"
   height="200"
   viewBox="0 0 320 200"
   version="1.1"
   id="svg1"
   inkscape:version="1.4 (86a8ad7, 2024-10-11)"
   sodipodi:docname="SquareTitleLumps.svg"
   inkscape:export-filename="..\..\graphics\ST_MBOHCREDIT.png"
   inkscape:export-xdpi="96"
   inkscape:export-ydpi="96"
   xmlns:inkscape="http://www.inkscape.org/namespaces/inkscape"
   xmlns:sodipodi="http://sodipodi.sourceforge.net/DTD/sodipodi-0.dtd"
   xmlns="http://www.w3.org/2000/svg"
   xmlns:svg="http://www.w3.org/2000/svg"
   xmlns:rdf="http://www.w3.org/1999/02/22-rdf-syntax-ns#"
   xmlns:cc="http://creativecommons.org/ns#">
  <sodipodi:namedview
     id="namedview1"
     pagecolor="#505050"
     bordercolor="#ffffff"
     borderopacity="1"
     inkscape:showpageshadow="0"
     inkscape:pageopacity="0"
     inkscape:pagecheckerboard="1"
     inkscape:deskcolor="#505050"
     inkscape:document-units="mm"
     showgrid="true"
     inkscape:zoom="4.3295454"
     inkscape:cx="158.21523"
     inkscape:cy="108.67192"
     inkscape:window-width="2560"
     inkscape:window-height="1417"
     inkscape:window-x="-8"
     inkscape:window-y="-8"
     inkscape:window-maximized="1"
     inkscape:current-layer="layer2">
    <inkscape:grid
       id="grid1"
       units="mm"
       originx="0"
       originy="0"
       spacingx="1"
       spacingy="1"
       empcolor="#0099e5"
       empopacity="0.30196078"
       color="#0099e5"
       opacity="0.14901961"
       empspacing="4"
       enabled="true"
       visible="true" />
    <inkscape:grid
       id="grid2"
       units="mm"
       originx="0"
       originy="0"
       spacingx="1"
       spacingy="1"
       empcolor="#00ffe5"
       empopacity="0.30196078"
       color="#ff3fe5"
       opacity="0.14901961"
       empspacing="32"
       enabled="true"
       visible="true" />
  </sodipodi:namedview>
  <defs
     id="defs1" />
  <g
     inkscape:label="AnTest"
     inkscape:groupmode="layer"
     id="layer1"
     sodipodi:insensitive="true"
     style="display:none">
    <rect
       style="opacity:0.998844;fill:#916f6f;stroke:none;stroke-width:20;stroke-linecap:round;stroke-linejoin:round"
       id="rect2"
       width="320"
       height="200"
       x="0"
       y="0"
       ry="0" />
    <text
       xml:space="preserve"
       style="font-weight:900;font-size:29.3333px;line-height:1;font-family:Ubuntu;-inkscape-font-specification:'Ubuntu Heavy';text-align:center;writing-mode:lr-tb;direction:ltr;text-anchor:middle;opacity:0.998844;fill:#000000;stroke:none;stroke-width:20;stroke-linecap:round;stroke-linejoin:round"
       x="160"
       y="96"
       id="text2"><tspan
         sodipodi:role="line"
         id="tspan2"
         x="160"
         y="96">HEHE</tspan></text>
  </g>
  <g
     inkscape:groupmode="layer"
     id="layer2"
     inkscape:label="LahMbohCredit">
    <rect
       style="opacity:0.998844;fill:#000000;stroke:none;stroke-width:20;stroke-linecap:round;stroke-linejoin:round"
       id="rect3"
       width="320"
       height="200"
       x="0"
       y="0" />
    <text
       xml:space="preserve"
       style="font-weight:900;font-size:29.3333px;line-height:1;font-family:Ubuntu;-inkscape-font-specification:'Ubuntu Heavy';text-align:center;writing-mode:lr-tb;direction:ltr;text-anchor:middle;opacity:0.998844;fill:#ffffff;stroke:none;stroke-width:20;stroke-linecap:round;stroke-linejoin:round"
       x="160"
       y="32"
       id="text3"><tspan
         sodipodi:role="line"
         id="tspan3"
         x="160"
         y="32">Lah Mboh?</tspan></text>
    <text
       xml:space="preserve"
       style="font-weight:900;font-size:8px;line-height:1;font-family:Ubuntu;-inkscape-font-specification:'Ubuntu Heavy';text-align:center;writing-mode:lr-tb;direction:ltr;text-anchor:middle;opacity:0.998844;fill:#ffffff;stroke:none;stroke-width:20;stroke-linecap:round;stroke-linejoin:round"
       x="160"
       y="96"
       id="text4"><tspan
         sodipodi:role="line"
         id="tspan4"
         x="160"
         y="96">You are using our greatest mod ever</tspan><tspan
         sodipodi:role="line"
         x="160"
         y="104"
         id="tspan9">capable of various purpose</tspan><tspan
         sodipodi:role="line"
         x="160"
         y="112"
         id="tspan10">Tests, Plays, Fun</tspan><tspan
         sodipodi:role="line"
         x="160"
         y="120"
         id="tspan8" /><tspan
         sodipodi:role="line"
         x="160"
         y="128"
         id="tspan7">visit</tspan><tspan
         sodipodi:role="line"
         x="160"
         y="136"
         id="tspan5">https://github.com/Perkedel/Lah-Mboh</tspan><tspan
         sodipodi:role="line"
         x="160"
         y="144"
         id="tspan6">for more information</tspan></text>
    <g
       id="g62"
       transform="matrix(0.14285717,0,0,0.14285717,110.2857,219.42858)">
      <path
         id="path58"
         style="opacity:0.998844;fill:#ffffff;stroke:none;stroke-width:20;stroke-linecap:round;stroke-linejoin:round"
         d="m 64,-320 c 0,0 -32,0 -32,32 v 64 c 0,0 0,32 32,32 l 96,-128 z m 128,0 -96,128 h 96 c 0,0 32,0 32,-32 v -64 c 0,0 0,-32 -32,-32 z" />
      <g
         id="g61">
        <path
           id="path59"
           style="opacity:0.998844;fill:#ffffff;stroke:none;stroke-width:20;stroke-linecap:round;stroke-linejoin:round"
           d="m 272,-320 v 16 c 0,0 16,0 16,16 v 64 c 0,0 0,16 -16,16 v 16 h 16 32 c 0,0 64,0 64,-64 0,-64 -64,-64 -64,-64 h -32 z m 40,24 h 8 c 0,0 40,0 40,40 0,40 -40,40 -40,40 h -8 z" />
        <path
           id="path60"
           style="opacity:0.998844;fill:#ffffff;stroke:none;stroke-width:20;stroke-linecap:round;stroke-linejoin:round"
           d="m 400,-320 v 16 c 0,0 16,0 16,16 v 64 c 0,0 0,16 -16,16 v 16 h 16 24 v -96 l 72,96 h 24 16 v -16 c -16,0 -16,-16 -16,-16 v -64 c 0,-16 16,-16 16,-16 v -16 h -16 -24 v 96 l -72,-96 h -24 z" />
        <path
           id="path61"
           style="opacity:0.998844;fill:#ffffff;stroke:none;stroke-width:20;stroke-linecap:round;stroke-linejoin:round"
           d="m 568,-320 v 16 c 0,0 16,0 16,16 v 64 c 0,0 0,16 -16,16 v 16 h 16 16 32 c 0,0 32,0 32,-32 0,-32 -32,-32 -32,-32 0,0 32,0 32,-32 0,-32 -32,-32 -32,-32 h -32 -16 z m 32,16 h 32 c 0,0 16,0 16,16 0,16 -16,16 -16,16 h -24 -8 z m 0,64 h 32 c 0,0 16,0 16,16 0,16 -16,16 -16,16 h -24 -8 z" />
      </g>
    </g>
  </g>
  <metadata
     id="metadata1">
    <rdf:RDF>
      <cc:Work
         rdf:about="">
        <cc:license
           rdf:resource="http://creativecommons.org/licenses/by-sa/4.0/" />
      </cc:Work>
      <cc:License
         rdf:about="http://creativecommons.org/licenses/by-sa/4.0/">
        <cc:permits
           rdf:resource="http://creativecommons.org/ns#Reproduction" />
        <cc:permits
           rdf:resource="http://creativecommons.org/ns#Distribution" />
        <cc:requires
           rdf:resource="http://creativecommons.org/ns#Notice" />
        <cc:requires
           rdf:resource="http://creativecommons.org/ns#Attribution" />
        <cc:permits
           rdf:resource="http://creativecommons.org/ns#DerivativeWorks" />
        <cc:requires
           rdf:resource="http://creativecommons.org/ns#ShareAlike" />
      </cc:License>
    </rdf:RDF>
  </metadata>
</svg>
