<?xml version="1.0" encoding="UTF-8" standalone="no"?>
<!-- Created with Inkscape (http://www.inkscape.org/) -->

<svg
   width="256"
   height="64"
   viewBox="0 0 256 64"
   version="1.1"
   id="svg1"
   inkscape:version="1.4 (86a8ad7, 2024-10-11)"
   sodipodi:docname="TexBanner_256x64.svg"
   inkscape:export-filename="..\..\graphics\MbohBannerTitle.png"
   inkscape:export-xdpi="384"
   inkscape:export-ydpi="384"
   xmlns:inkscape="http://www.inkscape.org/namespaces/inkscape"
   xmlns:sodipodi="http://sodipodi.sourceforge.net/DTD/sodipodi-0.dtd"
   xmlns="http://www.w3.org/2000/svg"
   xmlns:svg="http://www.w3.org/2000/svg"
   xmlns:rdf="http://www.w3.org/1999/02/22-rdf-syntax-ns#"
   xmlns:cc="http://creativecommons.org/ns#">
  <sodipodi:namedview
     id="namedview1"
     pagecolor="#505050"
     bordercolor="#ffffff"
     borderopacity="1"
     inkscape:showpageshadow="0"
     inkscape:pageopacity="0"
     inkscape:pagecheckerboard="1"
     inkscape:deskcolor="#505050"
     inkscape:document-units="mm"
     showgrid="true"
     inkscape:zoom="4.3295454"
     inkscape:cx="125.99475"
     inkscape:cy="16.976378"
     inkscape:window-width="2560"
     inkscape:window-height="1417"
     inkscape:window-x="-8"
     inkscape:window-y="-8"
     inkscape:window-maximized="1"
     inkscape:current-layer="layer2">
    <inkscape:grid
       id="grid1"
       units="mm"
       originx="0"
       originy="0"
       spacingx="1"
       spacingy="1"
       empcolor="#0099e5"
       empopacity="0.30196078"
       color="#0099e5"
       opacity="0.14901961"
       empspacing="4"
       enabled="true"
       visible="true" />
    <inkscape:grid
       id="grid2"
       units="mm"
       originx="0"
       originy="0"
       spacingx="1"
       spacingy="1"
       empcolor="#0099e5"
       empopacity="0.30196078"
       color="#0099e5"
       opacity="0.14901961"
       empspacing="64"
       enabled="true"
       visible="true" />
    <inkscape:grid
       id="grid3"
       units="mm"
       originx="0"
       originy="0"
       spacingx="1"
       spacingy="1"
       empcolor="#0099e5"
       empopacity="0.30196078"
       color="#0099e5"
       opacity="0.14901961"
       empspacing="32"
       enabled="true"
       visible="true" />
  </sodipodi:namedview>
  <defs
     id="defs1" />
  <g
     inkscape:label="Meme"
     inkscape:groupmode="layer"
     id="layer1">
    <g
       inkscape:groupmode="layer"
       id="layer2"
       inkscape:label="MbohBanner"
       sodipodi:insensitive="true">
      <g
         id="g6"
         style="display:inline"
         transform="matrix(6.9049063,0,0,6.9049063,3.2527472,-29.247252)"
         sodipodi:insensitive="true">
        <path
           style="display:inline;opacity:0.998844;fill:#1a1a1a;stroke:#ffffff;stroke-width:0.529167;stroke-linecap:round;stroke-linejoin:round;stroke-dasharray:none"
           d="m 0.60476217,9.4494044 c 0,0 0,-7.8619045 7.86190423,-7.8619045 7.8619046,0 7.8619046,7.8619045 7.8619046,7.8619045 0,0 0,5.8964286 -7.8619046,5.8964286 -7.86190423,0 -7.86190423,-5.8964286 -7.86190423,-5.8964286 z"
           id="path116-4" />
        <g
           id="g5">
          <g
             id="g3"
             style="display:none">
            <text
               xml:space="preserve"
               style="font-weight:bold;font-size:1.20715px;line-height:1;font-family:Ubuntu;-inkscape-font-specification:'Ubuntu Bold';text-align:center;writing-mode:lr-tb;direction:ltr;text-anchor:middle;opacity:0.998844;fill:#ffffff;stroke:none;stroke-width:0.113171;stroke-linecap:round;stroke-linejoin:round;stroke-dasharray:none"
               x="4.9908686"
               y="12.590318"
               id="text24"><tspan
                 sodipodi:role="line"
                 id="tspan24"
                 style="stroke-width:0.113171"
                 x="4.9908686"
                 y="12.590318">FOR</tspan></text>
            <g
               id="g2">
              <text
                 xml:space="preserve"
                 style="font-weight:bold;font-size:1.74266px;line-height:1;font-family:Ubuntu;-inkscape-font-specification:'Ubuntu Bold';text-align:center;writing-mode:lr-tb;direction:ltr;text-anchor:middle;opacity:0.998844;fill:#ffffff;stroke:none;stroke-width:0.163374;stroke-linecap:round;stroke-linejoin:round;stroke-dasharray:none"
                 x="8.4343681"
                 y="13.998519"
                 id="text22"><tspan
                   sodipodi:role="line"
                   id="tspan22"
                   style="stroke-width:0.163374"
                   x="8.4343681"
                   y="13.998519">FreeD      M</tspan></text>
              <g
                 id="g50"
                 transform="matrix(0.36111107,0,0,0.36111107,7.1731483,6.5263889)"
                 style="display:inline">
                <path
                   style="opacity:0.998844;fill:none;stroke:#ffffff;stroke-width:0.529167;stroke-linecap:round;stroke-linejoin:round;stroke-dasharray:none"
                   d="m 8.4666663,19.049999 c 0,0 -1.0583333,-1.058333 -2.1166666,-1.058333 -1.0583334,0 -1.0583334,1.058333 -1.0583334,1.058333 0,0 0,1.058334 1.0583334,1.058334 1.0583333,0 2.1166666,-1.058334 2.1166666,-1.058334 z"
                   id="path48" />
                <path
                   style="opacity:0.998844;fill:none;stroke:#ffffff;stroke-width:0.529167;stroke-linecap:round;stroke-linejoin:round;stroke-dasharray:none"
                   d="m 8.4666664,19.049999 c 0,0 1.0583333,-1.058333 2.1166666,-1.058333 1.058333,0 1.058333,1.058333 1.058333,1.058333 0,0 0,1.058334 -1.058333,1.058334 -1.0583333,0 -2.1166666,-1.058334 -2.1166666,-1.058334 z"
                   id="path49" />
              </g>
            </g>
          </g>
          <g
             id="g4">
            <text
               xml:space="preserve"
               style="font-weight:bold;font-size:8.79501px;line-height:1;font-family:Ubuntu;-inkscape-font-specification:'Ubuntu Bold';text-align:center;writing-mode:lr-tb;direction:ltr;text-anchor:middle;display:inline;opacity:0.998844;fill:#ffffff;stroke:none;stroke-width:0.824534;stroke-linecap:round;stroke-linejoin:round;stroke-dasharray:none"
               x="8.4886532"
               y="11.527331"
               id="text21"><tspan
                 sodipodi:role="line"
                 id="tspan21"
                 style="stroke:none;stroke-width:0.824534"
                 x="8.4886532"
                 y="11.527331">???</tspan></text>
            <text
               xml:space="preserve"
               style="font-weight:bold;font-size:1.20233px;line-height:1;font-family:Ubuntu;-inkscape-font-specification:'Ubuntu Bold';text-align:center;writing-mode:lr-tb;direction:ltr;text-anchor:middle;display:none;opacity:0.998844;fill:#ffffff;stroke:none;stroke-width:0.112719;stroke-linecap:round;stroke-linejoin:round;stroke-dasharray:none"
               x="8.4336023"
               y="5.1663432"
               id="text52"><tspan
                 sodipodi:role="line"
                 id="tspan52"
                 style="fill:#ffffff;stroke:none;stroke-width:0.112719"
                 x="0"
                 y="0">Lah Mboh?</tspan></text>
          </g>
        </g>
      </g>
      <text
         xml:space="preserve"
         style="font-weight:bold;font-size:24.6861px;line-height:0.7;font-family:Ubuntu;-inkscape-font-specification:'Ubuntu Bold';text-align:start;writing-mode:lr-tb;direction:ltr;text-anchor:start;fill:#ffffff;stroke:#000000;stroke-width:0.154288;stroke-linecap:round;stroke-linejoin:round"
         x="122.10226"
         y="27.577251"
         id="text3"><tspan
           sodipodi:role="line"
           id="tspan3"
           x="122.10226"
           y="27.577251"
           style="stroke-width:0.154288">Lah Mboh?</tspan></text>
      <text
         xml:space="preserve"
         style="font-weight:bold;font-size:7.86448px;line-height:0.7;font-family:Ubuntu;-inkscape-font-specification:'Ubuntu Bold';text-align:start;writing-mode:lr-tb;direction:ltr;text-anchor:start;fill:#ffffff;stroke:#000000;stroke-width:0.113755;stroke-linecap:round;stroke-linejoin:round"
         x="123.89959"
         y="36.323956"
         id="text4"><tspan
           sodipodi:role="line"
           id="tspan4"
           x="123.89959"
           y="36.323956"
           style="font-size:7.86448px;stroke-width:0.113755">Test map for UZDoom &amp; LZDoom</tspan></text>
      <text
         xml:space="preserve"
         style="font-weight:bold;font-size:6.25635px;line-height:1;font-family:Ubuntu;-inkscape-font-specification:'Ubuntu Bold';text-align:center;writing-mode:lr-tb;direction:ltr;text-anchor:middle;fill:#ffffff;stroke:#000000;stroke-width:0.0586531;stroke-linecap:round;stroke-linejoin:round"
         x="184.01544"
         y="44.556896"
         id="text5"><tspan
           sodipodi:role="line"
           id="tspan5"
           x="184.01544"
           y="44.556896"
           style="line-height:1;stroke-width:0.0586531">Shooting Range, Portals &amp; Teleporters</tspan><tspan
           sodipodi:role="line"
           x="184.01544"
           y="50.813248"
           id="tspan6"
           style="line-height:1;stroke-width:0.0586531">Crushers, Weapons &amp; Powerups</tspan></text>
      <g
         id="g62-8-4-1"
         transform="matrix(0.05906597,0,0,0.05906597,163.38461,73.120888)"
         style="display:inline">
        <path
           id="path58-8-5-7"
           style="opacity:0.998844;fill:#ffffff;stroke:none;stroke-width:20;stroke-linecap:round;stroke-linejoin:round"
           d="m 64,-320 c 0,0 -32,0 -32,32 v 64 c 0,0 0,32 32,32 l 96,-128 z m 128,0 -96,128 h 96 c 0,0 32,0 32,-32 v -64 c 0,0 0,-32 -32,-32 z" />
        <g
           id="g61-2-5-1">
          <path
             id="path59-4-1-1"
             style="opacity:0.998844;fill:#ffffff;stroke:none;stroke-width:20;stroke-linecap:round;stroke-linejoin:round"
             d="m 272,-320 v 16 c 0,0 16,0 16,16 v 64 c 0,0 0,16 -16,16 v 16 h 16 32 c 0,0 64,0 64,-64 0,-64 -64,-64 -64,-64 h -32 z m 40,24 h 8 c 0,0 40,0 40,40 0,40 -40,40 -40,40 h -8 z" />
          <path
             id="path60-5-7-5"
             style="opacity:0.998844;fill:#ffffff;stroke:none;stroke-width:20;stroke-linecap:round;stroke-linejoin:round"
             d="m 400,-320 v 16 c 0,0 16,0 16,16 v 64 c 0,0 0,16 -16,16 v 16 h 16 24 v -96 l 72,96 h 24 16 v -16 c -16,0 -16,-16 -16,-16 v -64 c 0,-16 16,-16 16,-16 v -16 h -16 -24 v 96 l -72,-96 h -24 z" />
          <path
             id="path61-5-1-2"
             style="opacity:0.998844;fill:#ffffff;stroke:none;stroke-width:20;stroke-linecap:round;stroke-linejoin:round"
             d="m 568,-320 v 16 c 0,0 16,0 16,16 v 64 c 0,0 0,16 -16,16 v 16 h 16 16 32 c 0,0 32,0 32,-32 0,-32 -32,-32 -32,-32 0,0 32,0 32,-32 0,-32 -32,-32 -32,-32 h -32 -16 z m 32,16 h 32 c 0,0 16,0 16,16 0,16 -16,16 -16,16 h -24 -8 z m 0,64 h 32 c 0,0 16,0 16,16 0,16 -16,16 -16,16 h -24 -8 z" />
        </g>
      </g>
    </g>
    <g
       id="g62-8-4"
       transform="matrix(0.14285719,0,0,0.14285719,89.2857,-24.142848)"
       style="display:inline">
      <path
         id="path58-8-5"
         style="opacity:0.998844;fill:#ffffff;stroke:none;stroke-width:20;stroke-linecap:round;stroke-linejoin:round"
         d="m 64,-320 c 0,0 -32,0 -32,32 v 64 c 0,0 0,32 32,32 l 96,-128 z m 128,0 -96,128 h 96 c 0,0 32,0 32,-32 v -64 c 0,0 0,-32 -32,-32 z" />
      <g
         id="g61-2-5">
        <path
           id="path59-4-1"
           style="opacity:0.998844;fill:#ffffff;stroke:none;stroke-width:20;stroke-linecap:round;stroke-linejoin:round"
           d="m 272,-320 v 16 c 0,0 16,0 16,16 v 64 c 0,0 0,16 -16,16 v 16 h 16 32 c 0,0 64,0 64,-64 0,-64 -64,-64 -64,-64 h -32 z m 40,24 h 8 c 0,0 40,0 40,40 0,40 -40,40 -40,40 h -8 z" />
        <path
           id="path60-5-7"
           style="opacity:0.998844;fill:#ffffff;stroke:none;stroke-width:20;stroke-linecap:round;stroke-linejoin:round"
           d="m 400,-320 v 16 c 0,0 16,0 16,16 v 64 c 0,0 0,16 -16,16 v 16 h 16 24 v -96 l 72,96 h 24 16 v -16 c -16,0 -16,-16 -16,-16 v -64 c 0,-16 16,-16 16,-16 v -16 h -16 -24 v 96 l -72,-96 h -24 z" />
        <path
           id="path61-5-1"
           style="opacity:0.998844;fill:#ffffff;stroke:none;stroke-width:20;stroke-linecap:round;stroke-linejoin:round"
           d="m 568,-320 v 16 c 0,0 16,0 16,16 v 64 c 0,0 0,16 -16,16 v 16 h 16 16 32 c 0,0 32,0 32,-32 0,-32 -32,-32 -32,-32 0,0 32,0 32,-32 0,-32 -32,-32 -32,-32 h -32 -16 z m 32,16 h 32 c 0,0 16,0 16,16 0,16 -16,16 -16,16 h -24 -8 z m 0,64 h 32 c 0,0 16,0 16,16 0,16 -16,16 -16,16 h -24 -8 z" />
      </g>
    </g>
  </g>
  <metadata
     id="metadata3">
    <rdf:RDF>
      <cc:Work
         rdf:about="">
        <cc:license
           rdf:resource="http://creativecommons.org/licenses/by-sa/4.0/" />
      </cc:Work>
      <cc:License
         rdf:about="http://creativecommons.org/licenses/by-sa/4.0/">
        <cc:permits
           rdf:resource="http://creativecommons.org/ns#Reproduction" />
        <cc:permits
           rdf:resource="http://creativecommons.org/ns#Distribution" />
        <cc:requires
           rdf:resource="http://creativecommons.org/ns#Notice" />
        <cc:requires
           rdf:resource="http://creativecommons.org/ns#Attribution" />
        <cc:permits
           rdf:resource="http://creativecommons.org/ns#DerivativeWorks" />
        <cc:requires
           rdf:resource="http://creativecommons.org/ns#ShareAlike" />
      </cc:License>
    </rdf:RDF>
  </metadata>
</svg>
